<svg width="100%" height="100%" viewBox="0 0 17 14" fill="none" xmlns="http://www.w3.org/2000/svg">
<path d="M8.75 14C8.59524 14 8.46429 13.9453 8.35714 13.8359L2.78571 8.34896C2.72619 8.30035 2.64435 8.22135 2.54018 8.11198C2.43601 8.0026 2.27083 7.8036 2.04464 7.51497C1.81845 7.22635 1.61607 6.93012 1.4375 6.6263C1.25893 6.32248 1.0997 5.95486 0.959821 5.52344C0.81994 5.09201 0.75 4.67274 0.75 4.26562C0.75 2.92882 1.12798 1.88368 1.88393 1.13021C2.63988 0.376736 3.68452 0 5.01786 0C5.38691 0 5.76339 0.0653212 6.14732 0.195964C6.53125 0.326606 6.88839 0.502821 7.21875 0.724609C7.54911 0.946398 7.83333 1.15451 8.07143 1.34896C8.30952 1.5434 8.53571 1.75 8.75 1.96875C8.96429 1.75 9.19048 1.5434 9.42857 1.34896C9.66667 1.15451 9.95089 0.946398 10.2812 0.724609C10.6116 0.502821 10.9688 0.326606 11.3527 0.195964C11.7366 0.0653212 12.1131 0 12.4821 0C13.8155 0 14.8601 0.376736 15.6161 1.13021C16.372 1.88368 16.75 2.92882 16.75 4.26562C16.75 5.60851 16.0685 6.97569 14.7054 8.36719L9.14286 13.8359C9.03572 13.9453 8.90476 14 8.75 14Z" fill="white"/>
</svg>
